<?xml version="1.0" encoding="utf-8"?><svg viewBox="0 0 144 144" xmlns="http://www.w3.org/2000/svg" xmlns:xlink="http://www.w3.org/1999/xlink"><style>:root>svg{display:none}:root>svg:target{display:block}</style><svg viewBox="0 0 24 24" id="close-icon" xmlns="http://www.w3.org/2000/svg"><path d="M17.3 18.7a1 1 0 0 0 1.4-1.4L13.42 12l5.3-5.3a1 1 0 0 0-1.42-1.4L12 10.58l-5.3-5.3A1 1 0 0 0 5.3 6.7l5.28 5.3-5.3 5.3a1 1 0 1 0 1.42 1.4l5.3-5.28 5.3 5.3Z"/></svg><svg viewBox="0 0 144 144" id="logo" xmlns="http://www.w3.org/2000/svg"><path d="M55.14 66.888a7.23 7.23 0 1 0-10.224 10.224l21.6 21.6a7.202 7.202 0 0 0 5.112 2.088 7.203 7.203 0 0 0 5.184-2.448l50.4-57.6a7.2 7.2 0 0 0-10.8-9.504l-44.784 51.84-16.488-16.2Z"/><path d="M136.428 64.8a7.2 7.2 0 0 0-7.2 7.2c0 31.812-25.788 57.6-57.6 57.6-23.26-.011-44.233-14.011-53.161-35.49-8.929-21.48-4.062-46.221 12.337-62.718A57.096 57.096 0 0 1 71.628 14.4c4.604.029 9.191.56 13.68 1.584a7.2 7.2 0 1 0 3.384-13.968A75.887 75.887 0 0 0 71.628 0C42.54.151 16.4 17.79 5.375 44.709-5.651 71.627.604 102.535 21.228 123.048A71.497 71.497 0 0 0 71.628 144c39.765 0 72-32.236 72-72a7.2 7.2 0 0 0-7.2-7.2Z"/></svg><svg viewBox="0 0 24 24" id="search" xmlns="http://www.w3.org/2000/svg"><path fill-rule="evenodd" d="M15.62 17.03a9 9 0 1 1 1.41-1.41l4.68 4.67a1 1 0 0 1-1.42 1.42l-4.67-4.68ZM17 10a7 7 0 1 1-14 0 7 7 0 0 1 14 0Z" clip-rule="evenodd"/></svg></svg>