<svg width="144" height="144" viewBox="0 0 144 144" fill="none" xmlns="http://www.w3.org/2000/svg">
    <path d="M55.1403 66.8876C52.317 64.0643 47.7396 64.0643 44.9163 66.8876C42.093 69.7109 42.093 74.2883 44.9163 77.1116L66.5163 98.7116C67.8751 100.059 69.7145 100.811 71.6283 100.8C73.6207 100.736 75.4977 99.85 76.8123 98.3516L127.212 40.7516C129.63 37.7498 129.255 33.3764 126.361 30.8301C123.468 28.2837 119.082 28.4678 116.412 31.2476L71.6283 83.0876L55.1403 66.8876Z" fill="#FA6605"/>
    <path d="M136.428 64.8C132.452 64.8 129.228 68.0236 129.228 72C129.228 103.812 103.44 129.6 71.6281 129.6C48.3671 129.589 27.3955 115.589 18.4668 94.1095C9.53812 72.6304 14.4051 47.8889 30.8041 31.392C41.5774 20.4745 56.2902 14.3507 71.6281 14.4C76.2322 14.4288 80.8193 14.96 85.3081 15.984C87.8679 16.7758 90.6556 16.0806 92.5439 14.1796C94.4322 12.2786 95.1086 9.48635 94.2998 6.93194C93.4909 4.37752 91.3304 2.48357 88.6921 2.016C83.0988 0.700145 77.3741 0.0238132 71.6281 0C42.5399 0.151103 16.4001 17.7905 5.37458 44.7086C-5.65098 71.6267 0.603909 102.535 21.2281 123.048C34.5963 136.422 52.7184 143.956 71.6281 144C111.393 144 143.628 111.764 143.628 72C143.628 68.0236 140.405 64.8 136.428 64.8Z" fill="#FA6605"/>
</svg>
